
<svg viewBox="0 0 100 130">

<path id="building-g" d="m46.7667 39.1667L46.7667 19.5333L52.9667 19.5333L52.9667 20.5667L56.0667 20.5667L56.0667 16.4333L68.4667 16.4333L68.4667 22.6333L56.0667 22.6333L56.0667 21.6L55.0333 21.6L55.0333 22.6333L54 22.6333L54 21.6L52.9667 21.6L52.9667 39.1667L46.7667 39.1667Z" fill="#cccccc" fill-rule="nonzero" opacity="1" stroke="none"/>
<path id="building-b" d="m34.3667 6.1L31.2667 6.1L31.2667 10.2333L26.1 10.2333L26.1 12.3L27.1333 12.3L27.1333 14.3667L26.1 14.3667L26.1 17.4667L34.3667 17.4667L34.3667 6.1Z" fill="#cccccc" fill-rule="nonzero" opacity="1" stroke="none"/>
<path id="building-m" d="m36.4333 3L36.4333 6.1L39.5333 6.1L39.5333 8.16667L37.4667 8.16667L37.4667 11.2667L38.5 11.2667L38.5 17.4667L43.6667 17.4667L43.6667 16.4333L46.7667 16.4333L46.7667 14.3667L48.8333 14.3667L48.8333 16.4333L51.9333 16.4333L51.9333 12.3L47.8 12.3L47.8 11.2667L48.8333 11.2667L43.6667 6.1L43.6667 7.13333L42.6333 7.13333L42.6333 4.03333L41.6 4.03333L41.6 3L36.4333 3Z" fill="#cccccc" fill-rule="nonzero" opacity="1" stroke="none"/>
<path id="building-u" d="M64.3333 51.5667L69.5 41.2333L63.3 41.2333L62.2667 40.2L58.1333 41.2333L57.1 41.2333L58.1333 47.4333C58.1333 47.4333 56.0667 47.4333 56.0667 49.5C56.0667 51.5667 58.1333 51.5667 58.1333 51.5667L64.3333 51.5667Z" fill="#cccccc" fill-rule="nonzero" opacity="1" stroke="none"/>
<path id="building-t" d="m56.0667 56.7333L57.1 86.7L59.1667 86.7L59.1667 82.5667L62.2667 82.5667L62.2667 86.7L64.3333 87.7333L64.3333 82.5667L67.4333 82.5667L67.4333 86.7L69.5 87.7333L71.5667 86.7L71.5667 80.5L70.5333 80.5L70.5333 78.4333L71.5667 78.4333L71.5667 69.1333L68.4667 69.1333L68.4667 70.1667L67.4333 70.1667L67.4333 77.4L66.4 77.4L66.4 76.3667L64.3333 76.3667L64.3333 77.4L59.1667 77.4L59.1667 72.2333L61.2333 72.2333L62.2667 73.2667L64.3333 70.1667L61.2333 69.1333L59.1667 69.1333L59.1667 62.9333L64.3333 62.9333L64.3333 60.8667L59.1667 60.8667L59.1667 56.7333L56.0667 56.7333Z" fill="#cccccc" fill-rule="nonzero" opacity="1" stroke="none"/>
<path d="m58.1333 89.8L58.1333 91.8667L60.2 91.8667L60.2 93.9333L59.1667 93.9333L59.1667 96L58.1333 96L58.1333 98.0667L63.3 100.133L64.3333 98.0667L62.2667 97.0333L63.3 92.9L65.3667 93.9333L65.3667 91.8667L58.1333 89.8Z" fill="#cccccc" fill-rule="nonzero" opacity="1" stroke="none"/>
<path id="building-p" d="m31.2667 46.4L28.1667 46.4L28.1667 45.3667L23 45.3667L23 42.2667L24.0333 42.2667L24.0333 38.1333L29.2 38.1333L29.2 36.0667L27.1333 35.0333L23 35.0333L23 21.6L31.2667 21.6L31.2667 22.6333L37.4667 22.6333L37.4667 36.0667L31.2667 36.0667L31.2667 37.1L37.4667 37.1L37.4667 42.2667L32.3 41.2333L31.2667 43.3L31.2667 46.4Z" fill="#cccccc" fill-rule="nonzero" opacity="1" stroke="none"/>
<path id="building-f" d="m25.0667 57.7667L29.2 57.7667L29.2 56.7333L31.2667 56.7333L31.2667 57.7667L36.4333 57.7667L36.4333 48.4667L31.2667 46.4L28.1667 46.4L28.1667 49.5L25.0667 49.5L25.0667 57.7667Z" fill="#cccccc" fill-rule="nonzero" opacity="1" stroke="none"/>
<path id="building-hub" d="m41.6 82.5667L41.6 84.6333L46.7667 84.6333L46.7667 82.5667L41.6 82.5667Z" fill="#cccccc" fill-rule="nonzero" opacity="1" stroke="none"/>
<path id="building-a" d="m73.6333 74.3L73.6333 87.7333L76.7333 86.7L76.7333 74.3L73.6333 74.3Z" fill="#cccccc" fill-rule="nonzero" opacity="1" stroke="none"/>
<path id="building-lab" d="m42.6333 89.8L42.6333 94.9667L45.7333 94.9667L45.7333 89.8L42.6333 89.8Z" fill="#cccccc" fill-rule="nonzero" opacity="1" stroke="none"/>
<path id="building-n" d="m51.9333 127L50.9 119.767L45.7333 109.433L49.8667 107.367L51.9333 107.367L51.9333 108.4L52.9667 108.4L54 111.5L52.9667 111.5L52.9667 117.7L54 118.733L54 125.967L52.9667 125.967L52.9667 127L51.9333 127Z" fill="#cccccc" fill-rule="nonzero" opacity="1" stroke="none"/>
<path d="m69.5 10.2333L67.4333 10.2333L67.4333 6.1L69.5 6.1L69.5 10.2333Z" fill="#cccccc" fill-rule="nonzero" opacity="1" stroke="none"/>
<path id="building-l" d="m41.6 48.4667L41.6 50.5333L46.7667 50.5333L46.7667 56.7333L43.6667 56.7333L43.6667 60.8667L42.6333 60.8667L42.6333 61.9L43.6667 61.9L43.6667 68.1L47.8 68.1L47.8 79.4667L41.6 79.4667L41.6 81.5333L47.8 81.5333L47.8 85.6667L46.7667 85.6667L46.7667 92.9L47.8 92.9L47.8 94.9667L51.9333 94.9667L51.9333 87.7333L54 85.6667L51.9333 84.6333L49.8667 85.6667L49.8667 81.5333L54 81.5333L54 79.4667L49.8667 79.4667L49.8667 75.3333L54 75.3333L54 73.2667L49.8667 73.2667L49.8667 68.1L52.9667 66.0333L49.8667 63.9667L49.8667 62.9333L54 62.9333L54 60.8667L49.8667 60.8667L49.8667 56.7333L54 56.7333L54 54.6667L49.8667 54.6667L49.8667 50.5333L54 50.5333L54 48.4667L49.8667 48.4667L49.8667 45.3667L51.9333 44.3333L51.9333 42.2667L50.9 42.2667L49.8667 43.3L46.7667 43.3L46.7667 48.4667L41.6 48.4667Z" fill="#cccccc" fill-rule="nonzero" opacity="1" stroke="none"/>
<path id="building-e" d="m42.6333 103.233C42.6333 103.233 45.7333 100.133 49.8667 100.133C54 100.133 57.1 101.167 57.1 101.167L57.1 97.0333C57.1 97.0333 51.9333 96 48.8333 97.0333C45.7333 98.0667 45.7333 98.0667 45.7333 98.0667L42.6333 98.0667L42.6333 100.133L40.5667 101.167L42.6333 103.233Z" fill="#cccccc" fill-rule="nonzero" opacity="1" stroke="none"/>
<path id="building-x" d="m32.3 110.467L32.3 122.867L27.1333 122.867L27.1333 124.933L25.0667 124.933L25.0667 119.767L23 111.5L23 108.4L32.3 108.4L32.3 110.467Z" fill="#cccccc" fill-rule="nonzero" opacity="1" stroke="none"/>

</svg>
