
<svg viewBox="0 0 100 130">

<path id="building-a" d="m8.57398 40.6166L8.70463 26.3726L6.50188 26.3366L6.28789 7.05865L64.347 7.13553L64.646 40.4607L8.57398 40.6166Z" fill="#cccccc" fill-rule="nonzero" opacity="1" stroke="none"/>
<path id="building-b" d="m64.9182 15.4371L69.5819 15.4371L69.4925 7.00649L75.1257 7.00972L75.3372 10.8276L92.0298 10.9085L92.1249 40.6902L64.8757 40.5697L64.9182 15.4371Z" fill="#cccccc" fill-rule="nonzero" opacity="1" stroke="none"/>
<path id="building-c" d="m92.1091 41.0351L92.2951 60.7402L62.8683 60.6133L62.9431 43.6797L64.8979 43.7553L64.9626 40.8079L92.1091 41.0351Z" fill="#cccccc" fill-rule="nonzero" opacity="1" stroke="none"/>
<path id="building-u" d="m8.03768 80.0654L8.08782 95.0268L35.8549 95.2071L35.88 91.7535L43.0305 91.5809L44.5463 90.0445L49.1631 89.9887L49.1307 87.8649L44.7412 87.8402L44.4193 80.3087L8.03768 80.0654Z" fill="#cccccc" fill-rule="nonzero" opacity="1" stroke="none"/>
<path id="building-t" d="m32.0855 95.2867L37.6532 95.438L37.4709 97.4486L35.8512 97.5112L35.9297 100.364L43.1599 100.85L44.8228 102.684L44.3979 109.349L35.3847 109.568L35.3103 111.985L26.7341 112.038L26.8643 102.899L32.2602 102.665L32.7445 97.2715L32.0079 97.2715L32.0855 95.2867Z" fill="#cccccc" fill-rule="nonzero" opacity="1" stroke="none"/>
<path id="building-r" d="m49.7421 80.8436L49.7162 90.5584L54.0669 90.7961L54.3977 93.6295L58.6008 93.6562L58.6894 95.0336L66.332 94.8089C66.332 94.8089 66.9191 95.2128 66.165 96.777C65.411 98.3413 66.7885 99.5376 68.4041 99.6585C70.0197 99.7794 72.727 99.023 71.6042 96.8599C70.4814 94.6969 72.9958 94.1219 72.9958 94.1219L76.0035 94.1753L75.8794 91.8105C75.8794 91.8105 77.1165 90.6433 78.9662 90.6433C80.816 90.6433 81.574 91.0621 81.574 91.0621L81.5199 80.9581L49.7421 80.8436Z" fill="#cccccc" fill-rule="nonzero" opacity="1" stroke="none"/>
<path id="building-s" d="m81.8312 89.512L81.8065 91.0516L82.7283 91.5974L82.5488 97.8327L81.1831 97.7914L81.2595 99.4511L82.5577 99.515L82.5844 101.718L83.7015 101.718L83.7015 103.072L91.7751 103.253C91.7751 103.253 92.9222 98.0837 92.8441 94.1167C92.7661 90.1496 91.6441 85.8425 91.6441 85.8425L83.6396 85.5983L83.2192 89.1712L81.8312 89.512Z" fill="#cccccc" fill-rule="nonzero" opacity="1" stroke="none"/>

</svg>
