<svg viewBox="0 0 100 130">

<path id="building-KR"  d="m13.9 10.45L18.25 10.45L18.25 9L21.875 9L21.875 10.45L30.575 10.45L30.575 9L34.2 9L34.2 10.45L38.55 10.45L38.55 11.9L40 11.9L40 13.35L38.55 13.35L38.55 16.975L40 16.975L40 19.875L38.55 19.875L38.55 23.5L40 23.5L40 24.95L38.55 24.95L38.55 26.4L34.2 26.4L34.2 27.85L30.575 27.85L30.575 26.4L21.875 26.4L21.875 27.85L18.25 27.85L18.25 26.4L13.9 26.4L13.9 24.95L12.45 24.95L12.45 23.5L13.9 23.5L13.9 19.15L11 19.15L11 16.25L13.9 16.25L13.9 10.45Z" fill="#d8d8d8" fill-rule="nonzero" opacity="1" stroke="none"/>
<path id="building-OR" d="M79 10.8421L79.7368 13.7895L79 16.7368L79.7368 19.6842L79 22.6316L79.7368 25.5789L79 28.5263L79.7368 31.4737L79 34.4211L79.7368 37.3684L79 40.3158L79.7368 44L92.2632 44L93 40.3158L92.2632 37.3684L93 34.4211L92.2632 31.4737L93 28.5263L92.2632 25.5789L93 22.6316L92.2632 19.6842L93 16.7368L92.2632 13.7895L93 10.8421L79 10.8421Z" fill="#d8d8d8" fill-rule="nonzero" opacity="1" stroke="none"/>
<path id="building-NI" d="m55.8413 39.6667L63.9683 40.6825C63.9683 40.6825 64.9841 40.6825 64.9841 41.6984C64.9841 42.7143 64.9841 45.7619 64.9841 45.7619C64.9841 45.7619 64.9841 46.7778 63.9683 46.7778C62.9524 46.7778 60.9206 47.7937 60.9206 47.7937L60.9206 49.8254C60.9206 49.8254 60.9206 50.8413 61.9365 50.8413C62.9524 50.8413 62.9524 50.8413 63.9683 52.873C64.9841 54.9048 66 56.9365 66 56.9365C66 56.9365 66 57.9524 64.9841 57.9524C63.9683 57.9524 57.873 59.9841 57.873 59.9841C57.873 59.9841 56.8571 59.9841 56.8571 58.9683C56.8571 57.9524 56.8571 55.9206 56.8571 55.9206C56.8571 55.9206 56.8571 54.9048 55.8413 54.9048C54.8254 54.9048 54.8254 54.9048 54.8254 54.9048C54.8254 54.9048 53.8095 54.9048 53.8095 55.9206C53.8095 56.9365 54.8254 57.9524 54.8254 57.9524C54.8254 57.9524 54.8254 58.9683 53.8095 58.9683C52.7937 58.9683 46.6984 61 46.6984 61C46.6984 61 45.6825 61 45.6825 59.9841C45.6825 58.9683 44.6667 49.8254 44.6667 49.8254L53.8095 45.7619C53.8095 45.7619 54.8254 45.7619 54.8254 44.746C54.8254 43.7302 54.8254 40.6825 54.8254 40.6825C54.8254 40.6825 54.8254 39.6667 55.8413 39.6667Z" fill="#d8d8d8" fill-rule="nonzero" opacity="1" stroke="none"/>
<path id="building-SU" d="M22.0476 43.1429L38.7143 43.1429L38.7143 53.8571L32.7619 59.8095L22.0476 59.8095L22.0476 43.1429Z" fill="#d8d8d8" fill-rule="nonzero" opacity="1" stroke="none"/>
<path id="building-NE" d="m16.0952 43.1429L16.0952 58.619L14.9048 58.619L14.9048 59.8095L10.1429 59.8095L10.1429 58.619L6.57143 58.619L6.57143 59.8095L3 59.8095L3 55.0476L11.3333 52.6667L8.95238 43.1429L16.0952 43.1429Z" fill="#d8d8d8" fill-rule="nonzero" opacity="1" stroke="none"/>
<path id="building-KL" d="m59 73L67.9189 73L67.9189 73.8108L71.1622 73.8108L71.1622 73L75.2162 73L75.2162 103L71.1622 103L71.1622 91.6486L63.0541 91.6486L63.0541 97.3243L59 97.3243L59 73Z" fill="#d8d8d8" fill-rule="nonzero" opacity="1" stroke="none"/>
<path id="building-AS" d="m40 99L40 105.3L33.7 105.3L33.7 113.4L37.3 113.4L37.3 117L13.9 118.8L13 115.2L26.5 113.4L26.5 105.3L16.6 105.3L16.6 99L40 99Z" fill="#d8d8d8" fill-rule="nonzero" opacity="1" stroke="none"/>
<path id="building-FO" d="m91.9578 110.816L84.8487 126.258L82.1236 125.004L81.7055 125.912L80.7971 125.494L81.6335 123.677L78 122.004L84.6909 107.471L87.416 108.725L88.6705 106L93.2123 108.091L91.9578 110.816Z" fill="#d8d8d8" fill-rule="nonzero" opacity="1" stroke="none"/>

</svg>
