<svg width="100" height="130" xmlns="http://www.w3.org/2000/svg">
  <path fill-rule="nonzero" fill="#cccccc" d="m16.383,27.5385l7.7334,0l0,6.4021l-7.7334,0l0,-6.4021z" id="building-12"/>
  <path fill-rule="nonzero" fill="#cccccc" d="m59.1318,7.23742l4.7188,0l0,20.30108l-4.7188,0l0,-20.30108z" id="building-09"/>
  <path fill-rule="nonzero" fill="#cccccc" d="m69.479,0l4.7774,0l0,20.2761l-4.7774,0l0,-20.2761z" id="building-117"/>
  <path fill-rule="nonzero" fill="#cccccc" d="m75.802,27.5385l7.65,0l0,6.4021l-7.65,0l0,-6.4021z" id="building-13"/>
  <path fill-rule="nonzero" fill="#cccccc" d="m59.1318,29.84l8.0469,0l0,5.1121l-8.0469,0l0,-5.1121z" id="building-11"/>
  <path fill-rule="nonzero" fill="#cccccc" d="m8.43256,80.7702l5.42924,0l0,15.3111l-5.42924,0l0,-15.3111z" id="building-06"/>
  <path fill-rule="nonzero" fill="#cccccc" d="m87.2352,84.8268l3.6168,0l0,7.262l-3.6168,0l0,-7.262z" id="building-05"/>
  <path fill-rule="nonzero" fill="#cccccc" d="m14.3251,123.793l16.0772,0l0,5.343l-16.0772,0l0,-5.343z" id="building-16"/>
  <path fill-rule="nonzero" fill="#cccccc" d="m69.796,123.842l15.721,0l0,5.294l-15.721,0l0,-5.294z" id="building-19"/>
  <path fill-rule="nonzero" fill="#cccccc" d="m63.083,98.542l6.421,0.07l-0.112,11.09l1.89,0.02699c0,0 1.691,-0.017 1.695,1.54201c0.00401,1.559 -1.125,1.545 -1.434,1.544c-0.013,1.785 -0.013,2.25 -0.013,2.25c0,0 1.438,0.004 1.452,1.563c0.014,1.559 -1.165,1.675 -1.44801,1.724c-0.282,0.05 -2.06599,0.04 -2.06599,0.04l0.003,10.756l-6.202,0.03601l-0.186,-30.64201z" id="building-17"/>
  <path fill-rule="nonzero" fill="#cccccc" d="m44.20815,101.522l0.955,-0.951l1.654,0.03l0.852,0.945l5.06,-0.04l0.743,-0.862l1.881,0.009l0.823,0.951l0.011,8.412l-11.965,0.089l-0.014,-8.583z" id="building-04"/>
  <path fill-rule="nonzero" fill="#cccccc" d="m34.423,73.5552l9.323,-0.0345l0.0419,-0.6437l13.1211,-0.0189l0.0351,0.4696l9.3159,-0.08649l-0.0496,-22.40891l-9.2993,0.0251l-0.0871,2.1661l-13.0083,0.1087l-0.0569,-1.9815l-9.3214,-0.0203l-0.0144,22.4248z" id="building-07"/>
  <path id="svg_1" fill-rule="nonzero" fill="#cccccc" d="m29.0804,32.3961l6.9181,0l0,4.0489l-6.9181,0l0,-4.0489z"/>
  <path id="svg_2" fill-rule="nonzero" fill="#cccccc" d="m48.144,24.3879l5.3895,0l0,3.9081l-5.3895,0l0,-3.9081z"/>
  <path id="svg_3" fill-rule="nonzero" fill="#cccccc" d="m40.7326,0l15.528,0l0,4.86112l-15.528,0l0,-4.86112z"/>
  <path fill-rule="nonzero" fill="#cccccc" d="m7.626,98.543l6.421,0.07l-0.112,11.09l1.89,0.027c0,0 1.691,-0.01701 1.695,1.542c0.004,1.559 -1.125,1.545 -1.434,1.544c-0.013,1.785 -0.013,2.25 -0.013,2.25c0,0 1.438,0.004 1.452,1.563c0.014,1.55901 -1.165,1.675 -1.448,1.724c-0.282,0.05 -2.066,0.04 -2.066,0.04l0.003,10.756l-6.202,0.036l-0.186,-30.642z" id="building-14"/>
  <path fill-rule="nonzero" fill="#cccccc" d="m7.861,47.513l6.421,0.07l-0.112,11.09l1.89,0.027c0,0 1.691,-0.017 1.695,1.542c0.004,1.559 -1.125,1.545 -1.434,1.544c-0.013,1.785 -0.013,2.25 -0.013,2.25c0,0 1.438,0.004 1.452,1.563c0.014,1.559 -1.165,1.675 -1.448,1.724c-0.282,0.05 -2.066,0.04 -2.066,0.04l0.003,10.756l-6.202,0.036l-0.186,-30.642z" id="building-20"/>
  <path fill="#cccccc" id="building-15" d="m30.709,98.626l6.387,-0.083l-0.195,30.62l-6.172,-0.01799l0.006,-10.76801l-2.039,-0.005c0,0 -1.473,-0.04601 -1.483,-1.608c-0.01,-1.562 1.501,-1.55 1.501,-1.55l-0.01,-2.34499c0,0 -1.444,0.032 -1.497,-1.525c-0.053,-1.557 1.513,-1.555 1.513,-1.555l2.025,-0.07l-0.036,-11.093z"/>
  <path fill="#cccccc" id="building-18" d="m85.799,98.595l6.38699,-0.083l-0.195,30.62l-6.172,-0.01801l0.006,-10.768l-2.03899,-0.005c0,0 -1.473,-0.04601 -1.483,-1.608c-0.01,-1.562 1.501,-1.55 1.501,-1.55l-0.01,-2.345c0,0 -1.444,0.03201 -1.497,-1.52499c-0.05299,-1.55701 1.513,-1.555 1.513,-1.555l2.025,-0.07l-0.036,-11.093z"/>
  <path fill="#cccccc" id="building-21" d="m85.916,47.339l6.387,-0.083l-0.195,30.62l-6.172,-0.018l0.006,-10.76801l-2.039,-0.005c0,0 -1.473,-0.046 -1.483,-1.608c-0.00999,-1.562 1.501,-1.55 1.501,-1.55l-0.00999,-2.345c0,0 -1.50648,0.032 -1.497,-1.525c0.00948,-1.557 1.513,-1.555 1.513,-1.555l2.025,-0.07l-0.036,-11.093z"/>
</svg>