
<svg viewBox="0 0 100 130">

<path id="building-p" d="m1.5866 80.1444C1.5866 80.1444 3.87008 68.2368 4.10841 63.2595C4.34674 58.2822 3.62373 45.0978 3.62373 45.0978L12.1212 42.3708L8.94606 58.4528L20.5747 61.179L18.4643 70.9444L14.3516 69.7107L14.6336 66.9063L8.26425 65.5551L6.23458 71.8255L15.5123 74.7671L13.1398 84.7249L1.5866 80.1444Z" fill="#cccccc" fill-rule="nonzero" opacity="1" stroke="none"/>
<path id="building-t" d="m21.2582 71.7777L29.0822 33.3862L37.8633 34.9027L29.8776 73.2563L21.2582 71.7777Z" fill="#cccccc" fill-rule="nonzero" opacity="1" stroke="none"/>
<path id="building-u" d="m46.259 45.228L43.73 57.111L37.3231 55.7275L37.7134 54.4137L34.4147 53.7194L36.5232 43.4488L46.259 45.228Z" fill="#cccccc" fill-rule="nonzero" opacity="1" stroke="none"/>
<path id="building-s" d="m37.9156 34.6207L9.82639 29.1958L11.5738 19.8041L31.0831 23.8342L32.3731 16.7133L37.2835 17.895L37.6476 16.919L44.0082 17.8618L43.2357 21.5239L41.0161 20.899L37.9156 34.6207Z" fill="#cccccc" fill-rule="nonzero" opacity="1" stroke="none"/>
<path id="building-e" d="m78.4861 102.734L78.5803 111.657L81.0068 111.704L81.0405 112.155L97.2748 111.997L98.0786 111.311L98.1582 101.925L91.7604 102.613L78.4861 102.734Z" fill="#cccccc" fill-rule="nonzero" opacity="1" stroke="none"/>
<path d="m57.6836 109.201L59.3738 109.089L59.5939 115.115L48.7963 115.586L48.6985 97.1352L59.5742 96.7683L59.5416 107.209L54.4009 107.307L54.2591 112.055L57.6707 112.093L57.6836 109.201Z" fill="#cccccc" fill-rule="nonzero" opacity="1" stroke="none"/>
<path d="m59.9876 92.2879L59.1424 92.2583L59.1861 93.7065L48.4245 93.2008L48.5157 80.7231L60.0598 80.7881L59.9876 92.2879Z" fill="#cccccc" fill-rule="nonzero" opacity="1" stroke="none"/>
<path id="building-j" d="m54.3186 68.546L54.2695 62.9908L55.091 62.0824L56.4322 62.0781L56.4299 60.8134L57.6243 60.6712L57.6909 59.042L58.8363 59.042L58.6868 57.3503L59.7259 57.3278L59.7478 55.5368L61.0254 55.5644L60.8625 54.0793L62.4431 54.0063L63.3375 52.6579L64.5471 53.3757L66.6128 53.3757L66.6128 52.4492L70.1304 52.2476L70.3408 55.7973L71.3028 55.7973L71.6213 63.9928L72.1706 63.8817L72.354 66.7368L66.6359 68.0376L54.3186 68.546Z" fill="#cccccc" fill-rule="nonzero" opacity="1" stroke="none"/>
<path id="building-h" d="m66.7121 68.3482L66.5363 77.1282L69.5569 77.7181L70.6959 69.6742L71.3472 69.6742L72.4014 66.9193L66.7121 68.3482Z" fill="#cccccc" fill-rule="nonzero" opacity="1" stroke="none"/>
<path id="building-h" d="m72.6687 66.9453L71.4779 69.916L71.0243 75.1948L76.5085 75.5253L76.8455 67.2517L72.6687 66.9453Z" fill="#cccccc" fill-rule="nonzero" opacity="1" stroke="none"/>
<path id="building-m" d="m83.7703 75.844L76.6815 75.4282L77.0365 67.3111L85.8211 67.3584L85.7967 68.9051L85.3321 68.9326L85.3245 71.7259L84.4069 71.7259L83.7703 75.844Z" fill="#cccccc" fill-rule="nonzero" opacity="1" stroke="none"/>
<path id="building-l" d="m77.0274 59.8077L85.8171 60.0743L85.7135 67.2486L77.0218 67.0916L77.0274 59.8077Z" fill="#cccccc" fill-rule="nonzero" opacity="1" stroke="none"/>
<path id="building-a" d="m66.7318 82.3906L73.6691 82.3289L73.3924 97.2024L67.0911 97.3373L67.1142 96.2025L66.7553 96.1774L66.7318 82.3906Z" fill="#cccccc" fill-rule="nonzero" opacity="1" stroke="none"/>
<path id="building-b" d="m73.781 84.6207L73.586 93.884L84.4577 93.7485L84.1144 85.9608L82.8886 86.0432L82.8335 85.6095L81.7543 84.5273L73.781 84.6207Z" fill="#cccccc" fill-rule="nonzero" opacity="1" stroke="none"/>
<path id="building-c" d="m84.5261 92.6938L84.1782 83.6861L87.9026 83.8759L87.9146 82.3302L97.1355 82.2408L98.7695 83.7658L98.8332 86.9521L98.4766 86.9521L98.4903 89.1205L98.8762 89.1137L98.8213 92.8517L84.5261 92.6938Z" fill="#cccccc" fill-rule="nonzero" opacity="1" stroke="none"/>
<path id="building-d" d="m91.6623 92.8616L98.7969 92.929L98.995 101.82L98.1682 101.823L91.7339 102.478L91.6623 92.8616Z" fill="#cccccc" fill-rule="nonzero" opacity="1" stroke="none"/>

</svg>
