
<svg viewBox="0 0 100 130">

<path id="building-23" d="m48 73C48 73 40 68 45 60C50 52 58 57 58 57L55 61C55 61 60 64 57 67C54 70 51 68 51 68L48 73Z" fill="#cccccc" fill-rule="nonzero" opacity="1" stroke="none"/>
<path id="building-41" d="m33 97L29 97L28 103C28 103 28 104 31 104C34 104 34 103 34 103L33 97Z" fill="#cccccc" fill-rule="nonzero" opacity="1" stroke="none"/>
<path id="building-91" d="m69 67L72 67L72 68L71 68L71 71L77 71L77 67L79 67L79 69L83 69L83 62L81 62L81 61L79 61L79 60L77 60L77 59L69 59L69 67Z" fill="#cccccc" fill-rule="nonzero" opacity="1" stroke="none"/>
<path id="building-96" d="m70 30L75 30L75 47L70 47L70 30Z" fill="#cccccc" fill-rule="nonzero" opacity="1" stroke="none"/>
<path id="building-55" d="m61 113L69 113L69 118L61 118L61 113Z" fill="#cccccc" fill-rule="nonzero" opacity="1" stroke="none"/>
<path id="building-81" d="m69 74L83 74L83 79L69 79L69 74Z" fill="#cccccc" fill-rule="nonzero" opacity="1" stroke="none"/>
<path id="building-71" d="m80 82L83 82L83 89L80 89L80 82Z" fill="#cccccc" fill-rule="nonzero" opacity="1" stroke="none"/>
<path id="building-72" d="m70 103L75 103L75 106L70 106L70 103Z" fill="#cccccc" fill-rule="nonzero" opacity="1" stroke="none"/>
<path id="building-74" d="m81 106.273L85.9652 100L89.1016 102.483L84.1363 108.755L81 106.273Z" fill="#cccccc" fill-rule="nonzero" opacity="1" stroke="none"/>
<path id="building-73" d="m77.605 110.217L80.2169 106.682L82.6297 108.465L80.0178 112L77.605 110.217Z" fill="#cccccc" fill-rule="nonzero" opacity="1" stroke="none"/>
<path id="building-45" d="m32 114L14 114L14 127L18 127L18 122L32 122L32 114Z" fill="#cccccc" fill-rule="nonzero" opacity="1" stroke="none"/>
<path id="building-13" d="m39 46L44 46L44 51L39 51L39 46Z" fill="#cccccc" fill-rule="nonzero" opacity="1" stroke="none"/>
<path id="building-99" d="m43 30L61 30L61 34L43 34L43 30Z" fill="#cccccc" fill-rule="nonzero" opacity="1" stroke="none"/>
<path id="building-97" d="m56.8614 6.98215L65.3089 3.87732L70.1386 17.0179L61.6911 20.1227L56.8614 6.98215Z" fill="#cccccc" fill-rule="nonzero" opacity="1" stroke="none"/>
<path id="building-32" d="m37 76L42 76L42 81L37 81L37 76Z" fill="#cccccc" fill-rule="nonzero" opacity="1" stroke="none"/>
<path id="building-33" d="m36 93L36 90L37 90L37 86L42 86L42 92L40 92L40 93L36 93Z" fill="#cccccc" fill-rule="nonzero" opacity="1" stroke="none"/>
<path id="building-51" d="m44 91L51 91L51 93L57 93L57 91L60 91L60 92L62 92L62 99L58 99L44 100L44 91Z" fill="#cccccc" fill-rule="nonzero" opacity="1" stroke="none"/>
<path id="building-21" d="m29 57L29 68L30 68L30 69L34 69L34 58L33 58L33 57L29 57Z" fill="#cccccc" fill-rule="nonzero" opacity="1" stroke="none"/>
<path id="building-11" d="m28 38L28 34L29 34L29 33L33 33L33 34L35 34L35 51L33 51L33 52L29 52L29 50L27 50L27 47L30 47L30 38L28 38Z" fill="#cccccc" fill-rule="nonzero" opacity="1" stroke="none"/>
<path id="building-12" d="m38 38L38 36L37 36L37 33L38 33L38 34L42 34L42 39L38 39L38 38Z" fill="#cccccc" fill-rule="nonzero" opacity="1" stroke="none"/>
<path id="building-22" d="m38 75L36 75L36 52L38 52L38 58L42 58L42 68L38 68L38 75Z" fill="#cccccc" fill-rule="nonzero" opacity="1" stroke="none"/>
<path id="building-31" d="m27 79L27 76L29 76L29 75L32 75L32 76L34 76L34 93L32 93L32 94L29 94L29 93L27 93L27 90L30 90L30 79L27 79Z" fill="#cccccc" fill-rule="nonzero" opacity="1" stroke="none"/>
<path id="building-61" d="m68 92L68 97L83 97L83 92L68 92Z" fill="#cccccc" fill-rule="nonzero" opacity="1" stroke="none"/>
<path id="building-63" d="m87 82L90 82L90 85L87 85L87 82Z" fill="#cccccc" fill-rule="nonzero" opacity="1" stroke="none"/>
<path id="building-92" d="m86 60L89 60L89 66L86 66L86 60Z" fill="#cccccc" fill-rule="nonzero" opacity="1" stroke="none"/>
<path id="building-93" d="m86 66L89 66L89 71L86 71L86 66Z" fill="#cccccc" fill-rule="nonzero" opacity="1" stroke="none"/>
<path id="building-94" d="m89 68L94 68L94 71L89 71L89 68Z" fill="#cccccc" fill-rule="nonzero" opacity="1" stroke="none"/>

</svg>
