
<svg viewBox="0 0 100 130">

<path id="building-c" d="m58.9128 77.0403C58.9128 77.0403 69.4226 84.3971 62.0658 93.8559C54.7089 103.315 45.2501 92.805 45.2501 92.805L58.9128 77.0403Z" fill="#cccccc" fill-rule="nonzero" opacity="1" stroke="none"/>
<path id="building-k" d="m61.2719 78.2423L67.8662 70.2827L69.1221 70.8204L62.2764 79.0754L61.2719 78.2423Z" fill="#cccccc" fill-rule="nonzero" opacity="1" stroke="none"/>
<path id="building-d" d="m65.8094 69.1193L74.8366 72.8153L83.7794 52.3578L77.7011 49.722L70.4945 58.2304L67.059 55.4097L59.8469 63.974L65.8094 69.1193Z" fill="#cccccc" fill-rule="nonzero" opacity="1" stroke="none"/>
<path id="building-e" d="m58.7126 64.9713L48.0579 55.8553L58.2361 43.8192L61.7514 46.8644L60.1692 48.7629L63.3085 51.4286L65.093 49.4416L68.8132 52.3605L58.7126 64.9713Z" fill="#cccccc" fill-rule="nonzero" opacity="1" stroke="none"/>
<path id="building-j" d="m35.1267 25.2256L27.6034 18.8828L40.3321 3.87331L44.4724 7.36684L43.7934 7.866L47.3539 10.8219L35.1267 25.2256Z" fill="#cccccc" fill-rule="nonzero" opacity="1" stroke="none"/>
<path id="building-i" d="m48.1939 10.4569L35.4162 25.3788L39.2277 28.5592L52.1712 13.4599L48.1939 10.4569Z" fill="#cccccc" fill-rule="nonzero" opacity="1" stroke="none"/>
<path id="building-h" d="m56.5905 17.3184L43.8657 32.4167L51.7839 38.8664L63.1784 25.038L59.4782 22.0154L60.5267 20.708L56.5905 17.3184Z" fill="#cccccc" fill-rule="nonzero" opacity="1" stroke="none"/>
<path id="building-f" d="m28.5009 20.1908L55.2527 42.3696L54.5006 43.2265L56.5967 44.8458L49.3467 52.9903L47.9017 48.9065L46.6878 49.6631L44.7154 45.6274L43.9071 46.0005C43.9071 46.0005 41.0579 38.8825 36.7152 34.6931C32.3726 30.5037 23.6418 24.8729 23.6418 24.8729L28.5009 20.1908Z" fill="#cccccc" fill-rule="nonzero" opacity="1" stroke="none"/>
<path id="building-a" d="m44.5024 126L25.5095 111.047L36.5614 97.0089L41.5161 100.91L34.3648 109.993L48.403 121.045L44.5024 126Z" fill="#cccccc" fill-rule="nonzero" opacity="1" stroke="none"/>
<path id="building-b" d="m33.9498 91.643L51.3889 70.606L57.8619 75.9719L40.4227 97.0089L33.9498 91.643Z" fill="#cccccc" fill-rule="nonzero" opacity="1" stroke="none"/>
<path id="building-g" d="m52.079 39.1328L55.5809 42.0581L68.1081 27.0214L64.2571 23.9937L52.079 39.1328Z" fill="#cccccc" fill-rule="nonzero" opacity="1" stroke="none"/>

</svg>
